<svg xmlns="http://www.w3.org/2000/svg" width="364.586" height="257.895" viewBox="66.624 105.606 364.586 257.895"><path fill="#751d25" fill-rule="evenodd" d="M136.547 243.222c-.229-.142-.92.041-.786.393.135.352-.215 2.015-1.376 3.334l-1.201 1.308-.582-.702c-.776-1.256-.985-1.953-.848-3.124.108-.929-.374-2.135-.568-2.135-.194 0-2.226.875-3.164 1.97-1.258 1.47-3.956 7.146-1.824 13.398 2.123 6.224 2.442 6.924 2.77 13.312.336 6.558 1.647 9.449 2.879 9.922 1.213.466 3.901-.261 5.094-1.679l1.999-1.403-.385-9.659c-.117-4.856-.13-10.414.071-12.726.43-4.944 1.406-9.93 3.053-11.707l1.79-1.979-2.753-.126m28.494 88.973c-2.013.356-7.412.75-11.973.92-16.646.616-23.098 1.507-27.642 3.825l-1.986 1.034.796 2.04c.847.537 1.074 1.195 1.074 1.588 0 3.215-3.613 2.89-17.632 5.03-4.403.672-9.635 2.996-9.635 3.975 0 1.546 4.763 3.327 15.566 3.707 12.356.434 15.66.507 20.835 2.725 4.142 1.776 10.587 2.888 21.562 2.898 9.762.01 15.609-.643 19.378-1.739 2.957-.861 3.997-2.129 2.586-3.651-1.761-1.9-2.245-2.437-.091-4.213 3.1-2.555 4.688-2.482 16.433-2.942 5.902-.231 10.731-.109 11.133-.243.403-.134 3.059-1.15 3.807-1.314 1.624-.357 1.067-2.782-.689-2.782-2.097 0-11.092-2.204-13.178-3.125-2.699-1.192-5.46-2.805-6.584-5.116l-.951-2.469-8.197-.289c-4.03-.159-8.157-.24-9.096-.357"/><path fill="#5f7191" fill-rule="evenodd" d="M391.264 179.496c2.103 9.822 1.524 25.248-1.739 37.603-.531 2.012-.986 4.368-1.092 4.821-1.479 6.307-4.181 13.037-6.571 18.146-.922 1.969-1.97 4.014-1.97 4.129 0 .362-3.941 7.683-6.665 11.781-3.539 5.325-4.127 8.245-3.328 17.173.333 3.725-.032 10.401.62 14.311.651 3.91 2.061 8.059 2.216 9.292.154 1.232.265 3.727.524 5.424.861 5.659 1.578 11.259.976 15.255-.569 3.782-1.691 8.935-2.373 9.429-.75.543-3.475 4.448-2.773 4.717 1.148.441 11.271-.164 11.717.007.509.196 16.375-16.558 16.174-16.883-.362-.586-9.477-50.371-6.803-53.266 21.092-22.833 9.472-104.482.121-91.821m11.494 10.372c0 .245 1.251 4.147 1.533 4.073.281-.074 17.214 19.336 17.024 19.833-.173.449 1.982-.554 2.261-.726.714-.441-5.551-11.334-5.551-11.548m-275.336 59.807c0 .488 38.614 13.936 39.178 13.72.564-.216 10.025 5.112 10.354 4.908.31-.191-.18-4.222-.136-5.797.049-1.726-1.252-4.373-2.171-4.373-.634 0-20.374-8.944-22.381-9.872-3.187-1.471-22.802-5.606-23.464-5.857m177.182 24.954c-.602.005-6.242.809-14.31 2.549-3.312.714-42.126-2.093-45.359-3.013-3.602-1.025-7.768-1.74-9.842-1.746-2.347-.006-3.433.311-5.364 2.406-3.967 4.304-4.421 6.167-4.808 23.108-.389 17.019-1.183 21.866-3.304 29.377-.884 3.133-5.434 10.57-6.631 11.766-.776.776-.743 3.425.36 3.734.645.181 8.067-.409 8.735-.197.655.208 13.837-9.53 13.837-9.892 0-.315-.323-10.998-.315-19.592.009-8.17-.663-30.806.301-31.836 1.293-1.381 2.344.381 1.855.138-.447-.223.915 8.588 1.675 8.397.758-.19 23.958 3.763 28.633 3.718 4.155-.04 37.151-6.98 37.206-8.24.071-1.657-.429-8.088-.225-11.788m-153.98 55.887c.009.323 20.955 2.279 21.267 2.922.316.653 2.066-51.858 1.672-51.707-.394.151-20.324-9.409-21.134-9.071m128.826 25.409c.045.526.877 16.067 1 14.501.123-1.566 10.951-4.23 12.716-1.12.763 1.343 3.424 18.308 5.212 18.312 1.79.004 9.405-.296 9.796-.146.512.197-4.708-32.458-4.468-34.208.354-2.584-1.064-3.444-2.935-2.655m-124.392 24.221c-.001 2.415-.662 3.575-.56 2.443.102-1.133-.099-3.306-.2-4.589-.101-1.282-.021-.256-.022 2.159m108.276-2.99c-1.227.428-4 8.376-2.868 10.823 1.132 2.447 12.423 4.812 13.405 4.493 2.103-.683-1.152-17.156-4.264-16.818m-206.154 11.356c1.223 1.224-21.653 8.169-21.653 8.169s9.037 4.191 10.934 4.191c1.833 0 10.826-2.603 10.676-2.844"/><path fill="#7e8fad" fill-rule="evenodd" d="M181.109 115.564c-10.907 2.294-21.445 10.331-29.666 19.723-4.517 5.162-4.512 4.286-5.944 2.518-1.201-1.484-5.373.309-14.164 2.517-19.204 4.823-32.786 15.41-41.906 29.254-5.268 7.995-6.195 14.716-9.428 34.428-4.601 28.047-6.225 41.289-6.608 59.531-.23 10.922.642 19.715 2.107 35.503 1.142 12.296 4.532 21 6.434 25.24 1.295 2.886 24.734-3.27 23.232-9.595-2.398-10.092-2.105-27.703.466-40.606 3.271-16.414 8.923-27.418 21.105-33.58 1.417-.716 5.882-1.547 8.49-2.264 3.985-1.097 3.647-1.595 8.993-1.613 6.888-.024 5.833-.783 6.416 1.447.433 1.656-.457 2.821-3.211 3.277-2.413.4-4.669 2.417-4.669 3.057 0 .455 2.434.644 5.381 1.087 1.046.158 3.109.61 4.584 1.006 1.476.395 3.144.817 3.706.938 2.907.623 13.852 4.387 17.039 5.858 2.007.928 6.015 2.717 6.992 3.314.976.597 3.092 1.691 4.702 2.431 4.269 1.963 5.394 5.149 6.252 3.754 1.107-1.8-.474-1.209.98-.191 2.009 1.407 2.101 2.916 2.51 19.682.669 27.477.293 34.867.531 35.251.139.226 2.825-3.182 3.659-4.132 1.685-1.919 4.161-2.656 5.823-2.656 2.2 0 3.486.402 5.078 2.838.851 1.302 3.169 4.173 3.405 4.178.235.005 2.09-1.493 3.112-2.417 3.563-3.218 6.471-3.661 10.136.502 3.208 3.645 4.409 6.134 4.516 13.547.09 6.284-.82 5.974-.044 5.198 1.197-1.196 6.711-9.163 7.595-12.296 2.121-7.511 2.655-12.737 3.044-29.756.387-16.941.674-18.343 4.641-22.647 1.931-2.095 2.209-2.23 4.556-2.224 2.074.006 5.97.714 9.572 1.739 3.233.92 14.03 3.194 16.585 3.493 1.744.204 8 .371 13.903.371 8.571 0 11.566-.18 14.878-.894 7.811-1.684 16.719-2.85 17.247-3.888.147-.289-1.158-.967-1.009-2.821.259-3.236.241-3.212 1.74-3.508 1.025-.201.709.534 1.342 6.417.494 4.58 6.407 42.376 6.932 44.662.269 1.174 1.918 4.244 1.918 3.171 0-1.062 3.333-6.628 5.129-7.48 3.174-1.506 5.103-1.749 7.46.808.643.697 3.799 3.552 4.194 3.703.74.284 2.775-1.923 4.431-3.101 1.79-1.276 3.567-1.085 5.777.058 1.882.973 5.046 3.699 6.277 6.112 1.615 3.165 2.921 7.274 2.961 11.123.032 3.028 1.308.98 1.949.516.682-.494 2.354-6.212 2.923-9.994.602-3.996.419-10.774-.442-16.433a245.339 245.339 0 0 1-.75-5.326c-.155-1.233-.815-5.44-1.466-9.35-.652-3.91-1.458-10.156-1.791-13.881-.799-8.928-.377-11.124 3.162-16.449 2.724-4.098 7.138-11.324 7.138-11.686 0-.115.753-1.82 1.675-3.789 2.39-5.109 4.911-12.546 6.39-18.853.106-.453.628-2.471 1.159-4.483 3.245-12.285 4.103-28.509 2.015-38.077-.548-2.511-1.058-9.666-.616-9.853 2.704-1.143.708-1.733-4.868-10.034-3.241-4.825-7.704-13.251-10.692-13.262-.882-.003-27.392-17.547-35.859-19.68-11.151-2.809-17.46-6.188-39.739-7.765-21.114-1.494-41.087-2.284-66.728.896-12.425 1.54-22.05-.163-36.088-3.785m200.306 56.214c.899 2.126 1.701 4.532 2.209 5.824.509 1.293 14.887 12.273 15.47 13.192.097.153 2.406 2.016 2.571 2.454.539 1.433 1.031-1.693-1.344-6.05-3.652-6.7-12.041-14.901-20.026-22.053m-221.201 95.635c0 .327 0-.128 0 0m-4.39 6.073c0 .344 0-.163 0 0m170.299 43.648c0 .284-3.96 2.625-4.161 2.525-.478-.238-1.609 15.502-1.054 16.057 1.398 1.397 13.793 4.211 13.793 4.211l-.692-8.647c-.097-3.766-2.126-12.461-2.309-12.372-.182.09-2.333-1.213-2.501-1.486m12.805.902c.13.211-1.316 1.381-1.969 1.73-.652.349-4.045 9.293-3.367 13.186l.965 6.142 3.101.385c1.387.012 4.725.406 6.759.274 4.048-.264 5.069-2.004 4.944-5.686-.037-1.073-5.315-15.854-4.933-15.235m-160.208.523c-1.358-.39-4.649 7.363-4.603 7.737.046.374.531 9.544.411 9.936-.589 1.92 9.935 4.549 10.946 4.167 1.144-.432 1.241-.487.873-.929-.267-.323 1.158-14.228.794-14.666-.322-.389-3.742-6.082-3.917-6.059m8.407 5.154c-.243-.126-2.092 5.073-1.802 6.582.201 1.048.34 7.664.334 8.29-.021 2.264 1.506 3.672 6.861 3.403 6.104-.307 7.438-.168 7.039-2.061-.094-.448-.149-2.694-.001-4.381.168-1.918-.172-7.646-.51-8.053-.297-.358-4.732-6.855-5.637-6.855"/><path fill="#151b1a" fill-rule="evenodd" d="M182.477 110.856c-9.956 2.135-20.475 8.124-29.239 16.648l-4.604 4.479-4.088.544c-11.759 1.565-28.332 7.757-38.299 14.309-14.832 9.751-24.356 24.356-27.415 42.043-5.714 33.027-8.702 59.412-8.73 77.073-.024 15.249 2.101 39.527 4.352 49.713 2.084 9.432 5.203 14.201 11.221 17.155 2.646 1.299 3.349 1.424 8.03 1.424 4.829 0 5.323-.095 8.441-1.629 3.964-1.95 6.332-4.828 7.233-8.791.633-2.78.391-4.892-1.375-12.019-1.368-5.523-1.231-23.817.241-32.195 1.498-8.525 2.632-12.572 4.894-17.469 1.915-4.145 8.058-13.675 8.339-12.486.18.762.601 6.626 1.749 9.711 2.021 5.431 2.094 5.828 2.291 12.439.247 8.283 1.069 10.756 4.043 12.168 3.93 1.865 9.446-.216 11.429-4.313.927-1.916.967-2.637.669-12.213l-.317-10.176 3.129.342c4.271.466 11.684 2.379 15.811 4.081l3.415 1.408v28.254c0 31.759-.073 31.034 3.52 34.784 1.146 1.197 2.03 2.223 1.965 2.282-.274.246-16.592 1.188-20.62 1.191-5.372.004-13.088 1.121-17.228 2.495-3.6 1.194-6.418 3.425-6.418 5.079 0 1.138 1.139 2.667 1.986 2.667.25 0 .453.184.453.41 0 .68-4.69 1.513-12.682 2.253-9.938.92-12.731 1.932-14.438 5.233-1.206 2.332-.561 3.699 2.382 5.046 4.177 1.91 8.346 2.593 18.997 3.109 9.466.459 10.387.589 14.391 2.027 7.923 2.845 8.91 2.998 20.863 3.239 11.705.235 17.707-.291 23.617-2.071 4.559-1.372 6.738-4.72 4.431-6.807-1.366-1.237-1.252-1.49 1.098-2.437 1.522-.613 4.536-.95 11.341-1.267 13.363-.624 17.208-1.411 18.933-3.874.651-.93 1.288-1.011 9.176-1.164 17.609-.343 26.64-4.2 30.883-13.191 2.041-4.324 2.297-7.211 2.135-24.055l-.151-15.744 1.219.261c4.122.883 10.04 1.317 21.342 1.564l12.805.281v3.947c0 6.834 1.008 19.966 1.734 22.569 1.935 6.948 9.89 10.034 25.547 9.912l8.014-.062 1.537 2.118c4.094 5.642 10.44 8.011 22.924 8.559 7.352.322 14.406-.373 21.145-2.082 13.425-3.406 22.688-11.648 25.239-22.458 1.015-4.303.725-9.143-1.269-21.17-2.538-15.31-3.853-24.432-4.369-30.32l-.495-5.65 2.633-5.551c4.048-8.535 7.189-18.598 8.89-28.481.627-3.643.848-7.861.874-16.685l.034-11.808 2.112 2.052c1.161 1.13 3.404 3.977 4.983 6.329 5.166 7.691 7.443 13.89 8.048 21.916.416 5.516 1.157 7.559 2.901 7.997 3.415.857 5.646-4.84 5.985-15.284.363-11.143-1.647-20.67-6.454-30.612-6.289-13.003-17.703-24.975-29.526-30.969-3.158-1.601-4.083-2.395-6.762-5.804-10.984-13.977-30.588-25.551-53.358-31.502-36.51-9.542-69.615-10.809-113.118-4.326l-8.604 1.282-1.396-.985c-2.618-1.848-6.606-3.612-10.301-4.557-4.438-1.135-13.318-1.226-18.168-.186m-.244 8.002c-10.842 2.863-19.236 8.097-28.05 17.491-4.195 4.47-5.371 5.456-6.508 5.457-.982 0-1.462-.289-1.644-.987-.22-.839-.522-.941-2.028-.68-18.96 3.285-32.796 9.943-43.355 20.864-6.707 6.936-10.93 13.918-13.484 22.291-1.821 5.972-7.25 38.28-8.807 52.414-2.331 21.154-2.262 38.409.254 63.658 1.454 14.596 2.766 20.099 5.779 24.26 3.484 4.81 12.625 5.56 16.805 1.38 2.334-2.333 2.472-3.864.92-10.199-1.286-5.256-1.332-5.897-1.332-18.855 0-10.451.192-14.629.865-18.91 3.575-22.714 13.786-35.835 31.472-40.442 5.612-1.463 14.832-1.832 17.534-.702 1.613.674 2.437 2.289 1.892 3.708-.452 1.18-3.126 2.547-5.632 2.879-2.483.329-2.921.803-3.871 4.198-1.204 4.3-1.197 4.391.337 4.391 2.805 0 10.016 1.518 15.253 3.211 2.944.952 8.8 3.483 13.013 5.625 5.701 2.899 17.983 8.734 18.36 8.724.018-.001.092-1.566.164-3.477.154-4.055.269-4.327 1.836-4.327 2.939 0 3.549 5.301 4.04 35.122l.334 20.244.917-1.847c1.869-3.762 6.056-6.068 9.361-5.155 2.185.604 5.263 3.344 6.09 5.422.346.868.692 1.662.769 1.763.077.1.724-.511 1.437-1.359 1.789-2.125 3.634-2.971 6.486-2.971 1.99 0 2.803.289 4.536 1.607 2.553 1.944 5.058 6.6 5.828 10.832.535 2.941.366 9.526-.284 11.074-.302.72-.1.796 1.524.575 9.84-1.342 15.223-4.392 17.795-10.081l1.15-2.543v-24.006c0-21.59.081-24.087.799-24.806.502-.503 1.171-.683 1.797-.484 1.247.395 2.908 3.753 3.311 6.69l.305 2.226 3.236.561c8.192 1.42 11.786 1.695 22.26 1.705 8.186.007 12.669-.215 16.585-.821 6.705-1.038 14.678-2.996 18.628-4.574l3.018-1.205-.252-7.643c-.236-7.128-.185-7.75.755-9.229 1.967-3.095 2.762-1.748 3.755 6.359.71 5.788 6.272 43.156 6.821 45.823.263 1.277.325 1.23 1.6-1.211 1.867-3.574 4.7-5.491 8.067-5.459 3.107.03 5.446 1.274 7.07 3.763l1.17 1.793 1.866-1.924c2.127-2.192 3.466-2.661 6.592-2.309 5.761.65 10.702 8.488 11.33 17.979l.312 4.692 2.682-.67c1.476-.368 4.497-1.559 6.713-2.645 7.082-3.471 11.714-9.143 12.82-15.699.624-3.703.184-7.786-3.276-30.37-2.407-15.709-2.564-17.033-2.582-21.762-.014-3.686.171-4.611 1.513-7.561 6.753-14.842 9.879-28.384 9.837-42.628-.071-24.666-7.609-44.561-22.561-59.544-15.536-15.57-39.754-24.958-77.585-30.077-9.519-1.287-10.916-1.352-29.025-1.338-16.585.013-20.244.156-28.536 1.12-9.334 1.085-17.982 2.262-20.582 2.802l-1.313.273 1.569 2.057c3.789 4.963 7.706 14.348 9.509 22.784 2.839 13.281 3.182 32.534.784 44.072-2.865 13.788-10.09 24.948-20.479 31.633-4.22 2.716-6.827 3.865-12.836 5.664-2.601.778-5.82 2.106-7.154 2.952-4.805 3.048-10.389 3.805-14.26 1.931-2.881-1.395-5.543-4.899-7.383-9.717-1.685-4.412-1.835-5.694-.826-7.073.678-.928.703-.927 1.782.029.602.533 2.242 2.725 3.645 4.871 5.267 8.061 7.262 8.619 14.854 4.15 2.265-1.332 5.383-2.689 7.237-3.148 1.792-.444 5.336-1.812 7.876-3.04 3.956-1.913 5.251-2.872 9.025-6.683 6.405-6.469 9.854-13.042 12.024-22.918 1.936-8.808 1.773-27.385-.33-37.59-3.06-14.851-11.307-27.844-20.459-32.233-6.46-3.097-14.847-3.963-21.464-2.217m110.889 40.143c-.807.647-2.005 6.349-7.252 34.512-4.559 24.471-4.454 23.807-3.919 24.807.961 1.796 10.399 1.828 12.017.041.703-.777 2.45-9.749 5.573-28.629l.585-3.536 5.444.039c7.167.052 9.633.692 10.187 2.644.577 2.035.087 6.364-1.877 16.585-1.681 8.758-2.066 12.341-1.435 13.363.36.582 9.825.775 11.249.229 1.199-.46 1.561-1.789 3.145-11.54.794-4.885 1.78-10.308 2.192-12.052.412-1.744.747-4.817.745-6.829-.004-4.849-1.103-7.3-4.132-9.221-3.489-2.213-6.36-2.717-15.496-2.724l-8.183-.006.264-1.22c.146-.671.691-4.137 1.212-7.702.981-6.71.841-8.46-.722-9.061-1.484-.569-8.798-.341-9.597.3m104.592 9.646c.167.396 1.054 2.476 1.971 4.622s2.149 5.329 2.737 7.073c.879 2.607 1.462 3.474 3.283 4.878 3.659 2.822 9.305 9.107 12.398 13.802 1.601 2.43 2.91 4.295 2.91 4.144 0-1.062-2.93-8.701-4.699-12.25-4.748-9.524-9.642-15.617-17.693-22.025-.83-.661-1.115-.737-.907-.244M247.016 176.4c-2.585.209-4.828.648-5.294 1.035-1.489 1.235-1.397.844-5.558 23.883-1.333 7.378-3.2 17.146-4.151 21.707-2.012 9.651-2.142 11.697-.787 12.422.995.533 8.327.687 10.094.213 1.461-.392 1.937-1.713 3.392-9.405l1.281-6.77 2.212-.303c1.218-.167 4.567-.303 7.444-.303 6.567 0 9.646-.571 13.657-2.53 5.657-2.762 10.319-8.447 12.661-15.436 1.144-3.414 1.434-11.126.534-14.189-1.249-4.248-4.773-7.441-10.308-9.343-2.693-.925-4.357-1.094-11.911-1.21-4.829-.073-10.799.03-13.266.229m97.168-.022c-2.683.182-5.364.604-5.959.937-1.376.77-1.647 1.829-4.032 15.716-2.19 12.75-3.196 18.021-5.652 29.59-1.761 8.301-2.058 11.776-1.088 12.745.811.812 9.699.792 10.731-.024 1.011-.8 1.588-2.799 2.849-9.878.573-3.219 1.115-5.927 1.203-6.017.089-.09 4.185-.344 9.103-.565 7.32-.328 9.418-.589 11.559-1.436 5.358-2.12 10.537-6.712 13.116-11.628 2.597-4.949 3.269-7.678 3.281-13.313.01-4.781-.095-5.362-1.452-8.005-1.764-3.434-4.668-5.623-9.435-7.111-2.602-.812-4.849-1.047-11.297-1.179-4.427-.09-10.244-.015-12.927.168m-216.585 4.376c-.805.494-3.649 2.909-6.32 5.368-3.766 3.466-4.979 4.333-5.398 3.858-8.558-9.711-9.294-10.263-11.174-8.384-1.632 1.632-.965 3.348 3.136 8.074 2.147 2.474 3.903 4.638 3.903 4.809 0 .171-1.768 1.915-3.929 3.875-2.16 1.961-4.269 4.086-4.687 4.724-.968 1.477-.528 3.346 1.03 4.366 1.543 1.011 2.15.672 7.687-4.292l4.375-3.923 4.235 4.215c4.605 4.584 6.142 5.217 7.602 3.131 1.458-2.08.973-3.208-3.237-7.52l-3.996-4.094 3.396-3.1c1.868-1.705 4.113-3.703 4.99-4.44 1.552-1.307 3.021-3.562 3.021-4.638 0-.614-2.201-2.93-2.782-2.927-.214.001-1.047.406-1.852.898m124.769 5.348c-.331.211-1.146 3.841-1.832 8.164-.679 4.281-1.466 8.881-1.748 10.222-1.099 5.224-1.523 4.635 3.334 4.635 4.906 0 9.336-.991 11.819-2.643 2.406-1.601 4.84-5.893 5.488-9.681.96-5.6-.948-9.351-5.382-10.582-2.111-.586-10.803-.672-11.679-.115m96.206.095c-.167.27-1.065 4.825-1.997 10.122-.932 5.298-1.897 10.377-2.145 11.287l-.451 1.653 5.224-.274c2.872-.15 6.431-.642 7.906-1.094 5.459-1.668 9.079-7.641 8.699-14.352-.24-4.253-1.262-5.801-4.592-6.956-2.701-.937-12.126-1.224-12.644-.386m-210.233 57.06c-.479.53-2.164 2.808-3.325 4.127l-2.109 2.398-1.12-1.812c-.776-1.256-1.059-2.329-.922-3.5.108-.929.039-1.689-.155-1.689s-1.119.897-2.057 1.992c-1.258 1.47-3.6 6.322-1.468 12.574 2.123 6.224 2.292 7.095 2.62 13.483.336 6.558.928 9.206 2.16 9.679 1.213.466 3.257-.344 4.45-1.762l1.245-1.479-.213-8.829c-.117-4.856-.049-10.72.152-13.032.43-4.944 2.014-10.073 3.661-11.85l1.171-1.264h-1.609c-.982 0-1.948.375-2.481.964m32.917 26.403c0 1.349-.213 7.322-.473 13.275-.261 5.952-.594 13.667-.739 17.145l-.266 6.325 1.151-1.561c2.008-2.721 3.735-3.77 6.204-3.77 7.352 0 12.056 11.611 9.19 22.683-.131.504.113.679.786.563.537-.093 1.059-.249 1.162-.348.102-.099.271-3.207.375-6.905.104-3.699.403-12.432.664-19.408.261-6.976.507-14.737.546-17.248l.073-4.566-5.44-2.347c-2.991-1.292-7.193-3.236-9.336-4.319l-3.897-1.972v2.453m148.78 17.6c-3.145 1.364-10.69 3.249-15.772 3.941l-4.365.595.33 6.566c.181 3.612.432 6.67.558 6.796.126.125.722-.222 1.324-.773 2.952-2.7 7.547-3.401 10.496-1.603 3.62 2.207 6.777 10.476 6.339 16.601-.228 3.18-.225 3.189 1.041 3.126.697-.035 2.561-.098 4.141-.14l2.871-.076-.31-2.805c-1.387-12.498-3.94-32.62-4.172-32.87-.157-.171-1.274.119-2.481.642m-146.052 20.052c-2.243 2.941-3.621 11.914-2.229 14.515.53.99 4.002 2.14 7.844 2.599l2.246.268.559-1.867c1.093-3.649.431-10.22-1.383-13.727-1.968-3.806-4.925-4.557-7.037-1.788m131.339.573c-2.141 1.455-3.824 4.733-3.824 7.449 0 2.796.353 3.455 2.402 4.501 2.014 1.027 9.27 2.659 9.736 2.188.165-.167.286-2.096.268-4.285-.052-6.081-2.649-11.055-5.773-11.055-.572 0-1.836.541-2.809 1.202m35.127 4.906c-3.864 2.099-5.557 13.227-2.555 16.794 1.181 1.403 4.481 2.554 9.16 3.194 2.181.298 2.354.25 2.023-.568-.198-.492-.513-3.967-.699-7.723-.36-7.246-.641-8.223-3.131-10.853-1.632-1.724-2.8-1.93-4.798-.844m15.649 1.819c-2.73 2.859-4.162 10.682-2.911 15.899l.604 2.516 4.951-.058c2.723-.031 5.61-.197 6.415-.368 1.33-.282 1.478-.511 1.622-2.503.509-7.034-4.169-16.583-8.124-16.583-.929 0-1.912.422-2.557 1.097m-153.324.409c-2.545 2.002-4.187 6.859-4.196 12.409-.004 2.254.243 3.784.72 4.465.854 1.219 4.31 2.491 7.925 2.916l2.571.302-.313-1.565c-.172-.861-.032-3.845.312-6.631.747-6.057.236-8.661-2.209-11.254-1.807-1.915-2.99-2.073-4.81-.642m17.15 2.052c-3.13 1.382-5.402 6.8-5.463 13.027-.062 6.355-.261 6.15 6.357 6.558 3.994.245 5.839.186 6.227-.202.343-.343.545-2.522.536-5.771-.018-6.043-1.126-9.642-3.859-12.54-1.775-1.882-1.89-1.914-3.798-1.072m-50.62 14.246c-2.013.356-7.391.784-11.952.954-16.646.616-22.712 1.456-27.256 3.774l-1.92.98 1.539.974c.847.537 1.54 1.298 1.54 1.691 0 3.215-5.026 4.887-19.381 6.449-4.428.482-8.912 1.96-8.912 2.939 0 1.546 4.319 2.317 15.122 2.697 12.356.434 16.08.998 21.255 3.216 4.142 1.776 9.965 2.464 20.94 2.474 9.762.01 15.012-.412 18.781-1.508 2.957-.861 3.158-1.169 1.747-2.691-1.761-1.9-1.612-3.294.542-5.07 3.1-2.555 5.234-2.989 16.979-3.449 5.902-.231 11.061-.531 11.463-.665.403-.134 1.345-.379 2.093-.543 1.624-.357 1.296-1.246-.46-1.246-2.097 0-11.035-1.968-13.121-2.889-2.699-1.192-5.21-3.492-6.334-5.803l-.937-1.927-7.328-.29c-4.03-.159-8.096-.385-9.035-.502-.939-.116-3.353.079-5.365.435"/></svg>